# xmcd
#
# Track frame offsets:
#	150
#	14613
#	30672
#	43275
#	58859
#	76699
#	89819
#	106922
#	124878
#	140786
#	157425
#	173303
#	190102
#	207102
#
# Disc length: 2951 seconds
#
# Revision: 0
# Processed by: cddbd v1.5.2PL0 Copyright (c) Steve Scherf et al.
# Submitted via: EasyCDDAExtractor 2011.3.0.0
#
DISCID=c60b850e
DTITLE=LEONARDO - NADA MUDOU
DYEAR=2011
DGENRE=SERTANEJO
TTITLE0=STANDY BY ME [STANDY BY ME] (BY DJ GILMAR SINISTRO)
TTITLE1=BEBER , BEBER (BY DJ GILMAR SINISTRO)
TTITLE2=BABY , FALA PRA MIM [QUEL'UN M'A DIT] (BY DJ GILMAR SINISTRO)
TTITLE3=REFÉM (BY DJ GILMAR SINISTRO)
TTITLE4=VIDA NOVA , NOVO AMOR (BY DJ GILMAR SINISTRO)
TTITLE5=HOMEM É QUE NEM LATA (BY DJ GILMAR SINISTRO)
TTITLE6=LEVIANA (BY DJ GILMAR SINISTRO)
TTITLE7=OK (BY DJ GILMAR SINISTRO)
TTITLE8=SEM VERGONHA E SEM JUIZO (BY DJ GILMAR SINISTRO)
TTITLE9=NADA MUDOU (BY DJ GILMAR SINISTRO)
TTITLE10=MULHER DANADA (BY DJ GILMAR SINISTRO)
TTITLE11=ALÉM DO SOL , ALÉM DO MAR (BY DJ GILMAR SINISTRO)
TTITLE12=MIL PERDÕES (BY DJ GILMAR SINISTRO)
TTITLE13=BEBEMORAR (BY DJ GILMAR SINISTRO)
EXTD=
EXTT0=
EXTT1=
EXTT2=
EXTT3=
EXTT4=
EXTT5=
EXTT6=
EXTT7=
EXTT8=
EXTT9=
EXTT10=
EXTT11=
EXTT12=
EXTT13=
PLAYORDER=
